<svg width="260" height="69" viewBox="0 0 260 69" fill="none" xmlns="http://www.w3.org/2000/svg">
<path d="M104.439 17.4492H95.6695V42H91.0016V17.4492H82.2906V13.5625H104.439V17.4492ZM122.495 35.457H113.57L111.636 42H106.753L116.011 13.5625H120.171L129.273 42H124.409L122.495 35.457ZM114.761 31.4336H121.343L118.081 20.1836L114.761 31.4336ZM142.388 24.168L147.915 13.5625H153.423L145.317 27.6641L153.618 42H148.149L142.466 31.2188L136.802 42H131.255L139.575 27.6641L131.47 13.5625H136.958L142.388 24.168ZM158.237 13.5625H174.995V17.4492H168.92V38.1328H174.995V42H158.237V38.1328H164.174V17.4492H158.237V13.5625Z" fill="#FFC700"/>
<path d="M13.1664 56.8203C13.0727 57.5859 12.8813 58.3008 12.5922 58.9648C12.3031 59.6289 11.9203 60.1992 11.4438 60.6758C10.9672 61.168 10.4008 61.5547 9.74454 61.8359C9.0961 62.1094 8.36563 62.2422 7.55313 62.2344C6.87344 62.2344 6.26016 62.1289 5.71329 61.918C5.16641 61.707 4.68204 61.4219 4.26016 61.0625C3.82266 60.7031 3.44766 60.2812 3.13516 59.7969C2.83047 59.3125 2.57657 58.793 2.37344 58.2383C2.17032 57.6758 2.01797 57.0977 1.91641 56.5039C1.81485 55.9023 1.76016 55.3047 1.75235 54.7109V52.2383C1.76016 51.6445 1.81485 51.0469 1.91641 50.4453C2.01797 49.8438 2.17032 49.2617 2.37344 48.6992C2.57657 48.1445 2.83438 47.625 3.14688 47.1406C3.45938 46.6562 3.83047 46.2344 4.26016 45.875C4.68204 45.5156 5.16641 45.2344 5.71329 45.0312C6.26016 44.8203 6.87344 44.7109 7.55313 44.7031C8.38126 44.6953 9.12344 44.832 9.77969 45.1133C10.4359 45.3867 10.9984 45.7656 11.4672 46.25C11.9438 46.7344 12.3227 47.3125 12.6039 47.9844C12.893 48.6484 13.0805 49.3711 13.1664 50.1523H11.7836C11.6898 49.5664 11.5375 49.0156 11.3266 48.5C11.1234 47.9844 10.85 47.5312 10.5063 47.1406C10.1625 46.7578 9.74844 46.457 9.26407 46.2383C8.77969 46.0117 8.20938 45.8984 7.55313 45.8984C7.00626 45.9062 6.51407 46.0039 6.07657 46.1914C5.64688 46.3711 5.27188 46.6172 4.95157 46.9297C4.62344 47.2422 4.3461 47.6094 4.11954 48.0312C3.89297 48.4453 3.70938 48.8867 3.56876 49.3555C3.42813 49.8242 3.32266 50.3047 3.25235 50.7969C3.18985 51.2812 3.1586 51.7539 3.1586 52.2148V54.7109C3.1586 55.1719 3.18985 55.6484 3.25235 56.1406C3.32266 56.625 3.42813 57.1016 3.56876 57.5703C3.70938 58.0391 3.88907 58.4844 4.10782 58.9062C4.33438 59.3203 4.61172 59.6875 4.93985 60.0078C5.26797 60.3281 5.64688 60.582 6.07657 60.7695C6.50626 60.9492 6.99844 61.0391 7.55313 61.0391C8.20938 61.0469 8.77969 60.9414 9.26407 60.7227C9.75626 60.5039 10.1742 60.2031 10.518 59.8203C10.8539 59.4453 11.1234 59 11.3266 58.4844C11.5375 57.9688 11.6898 57.4141 11.7836 56.8203H13.1664ZM19.2114 44H25.1177V60.7461H29.4067V62H19.2114V60.7461H23.7231V45.2539H19.2114V44ZM40.6314 62.2344C39.7564 62.2344 38.9556 62.0703 38.2291 61.7422C37.5025 61.4141 36.8814 60.9688 36.3658 60.4062C35.8424 59.8359 35.4361 59.1758 35.147 58.4258C34.858 57.668 34.7134 56.8633 34.7134 56.0117V55.5078C34.7134 54.6094 34.858 53.7695 35.147 52.9883C35.4439 52.1992 35.8502 51.5156 36.3658 50.9375C36.8658 50.3672 37.4595 49.918 38.147 49.5898C38.8345 49.2539 39.5767 49.0859 40.3736 49.0859C41.2095 49.0859 41.9517 49.2383 42.6002 49.543C43.2486 49.8398 43.7955 50.25 44.2408 50.7734C44.6861 51.3047 45.022 51.9258 45.2486 52.6367C45.4752 53.3398 45.5924 54.0938 45.6002 54.8984V55.7539H36.108V56.1406C36.1392 56.8125 36.2642 57.4375 36.483 58.0156C36.7017 58.5938 37.0103 59.1055 37.4088 59.5508C37.7994 60.0039 38.272 60.3672 38.8267 60.6406C39.3892 60.9062 40.0103 61.0391 40.69 61.0391C41.4713 61.0469 42.1783 60.9023 42.8111 60.6055C43.4439 60.3086 43.9869 59.8789 44.44 59.3164L45.3189 59.9844C44.8424 60.6562 44.2056 61.1992 43.4088 61.6133C42.6119 62.0273 41.6861 62.2344 40.6314 62.2344ZM40.3736 50.293C39.7955 50.293 39.2681 50.4023 38.7916 50.6211C38.315 50.832 37.897 51.125 37.5377 51.5C37.1783 51.8828 36.8814 52.3359 36.647 52.8594C36.4127 53.3828 36.2525 53.9492 36.1666 54.5586H44.2056V54.4297C44.2056 53.9141 44.1119 53.4023 43.9244 52.8945C43.7447 52.3867 43.4947 51.9414 43.1744 51.5586C42.8463 51.1758 42.4478 50.8711 41.9791 50.6445C41.5103 50.4102 40.9752 50.293 40.3736 50.293ZM51.8795 49.3203H57.7623V60.7461H62.0748V62H51.8795V60.7461H56.3678V50.5742H51.8795V49.3203ZM55.9577 45.8516C55.9577 45.7031 55.9772 45.5625 56.0163 45.4297C56.0553 45.2969 56.1217 45.1797 56.2155 45.0781C56.3014 44.9844 56.4108 44.9141 56.5436 44.8672C56.6764 44.8125 56.8327 44.7852 57.0123 44.7852C57.192 44.7852 57.3483 44.8125 57.4811 44.8672C57.6139 44.9141 57.7194 44.9844 57.7975 45.0781C57.8913 45.1719 57.9616 45.2852 58.0084 45.418C58.0553 45.5508 58.0788 45.6953 58.0788 45.8516C58.0788 46.1328 57.9928 46.375 57.8209 46.5781C57.6491 46.7812 57.3795 46.8828 57.0123 46.8828C56.6373 46.8828 56.3678 46.7812 56.2038 46.5781C56.0397 46.375 55.9577 46.1328 55.9577 45.8516ZM72.5613 46.0742V49.3203H77.2605V50.4805H72.5613V58.4258C72.5691 58.918 72.6433 59.3281 72.7839 59.6562C72.9245 59.9844 73.1199 60.2461 73.3699 60.4414C73.6199 60.6445 73.9128 60.7891 74.2488 60.875C74.5847 60.9609 74.9441 61.0039 75.3269 61.0039C75.5534 61.0039 75.78 60.9961 76.0066 60.9805C76.2331 60.957 76.4558 60.9336 76.6745 60.9102C76.8386 60.8867 76.9988 60.8633 77.155 60.8398C77.3191 60.8086 77.4597 60.7812 77.5769 60.7578L77.7878 61.8242C77.6472 61.8945 77.4831 61.9531 77.2956 62C77.1159 62.0469 76.9245 62.0859 76.7214 62.1172C76.4636 62.1641 76.1941 62.1953 75.9128 62.2109C75.6394 62.2266 75.3659 62.2344 75.0925 62.2344C74.53 62.2344 74.0066 62.1641 73.5222 62.0234C73.0456 61.8906 72.6316 61.6719 72.28 61.3672C71.9284 61.0703 71.6511 60.6797 71.448 60.1953C71.2527 59.7109 71.1511 59.1211 71.1433 58.4258V50.4805H67.6159V49.3203H71.1433V46.0742H72.5613ZM83.5047 55.4727C83.5047 54.6133 83.6336 53.7969 83.8914 53.0234C84.1492 52.25 84.5203 51.5742 85.0047 50.9961C85.4891 50.4102 86.0789 49.9453 86.7742 49.6016C87.4695 49.2578 88.2625 49.0859 89.1531 49.0859C90.0359 49.0859 90.825 49.2578 91.5203 49.6016C92.2234 49.9453 92.8211 50.4062 93.3133 50.9844C93.7898 51.5703 94.157 52.25 94.4148 53.0234C94.6727 53.7969 94.8055 54.6133 94.8133 55.4727V55.8594C94.8055 56.7188 94.6727 57.5352 94.4148 58.3086C94.1648 59.0742 93.7977 59.75 93.3133 60.3359C92.8289 60.9141 92.2391 61.375 91.5438 61.7188C90.8484 62.0625 90.0594 62.2344 89.1766 62.2344C88.2859 62.2344 87.4891 62.0664 86.7859 61.7305C86.0828 61.3867 85.493 60.9219 85.0164 60.3359C84.5242 59.7578 84.1492 59.082 83.8914 58.3086C83.6336 57.5352 83.5047 56.7188 83.5047 55.8594V55.4727ZM84.8992 55.8594C84.8992 56.5312 84.993 57.1797 85.1805 57.8047C85.368 58.4297 85.6414 58.9805 86.0008 59.457C86.3602 59.9414 86.8055 60.3281 87.3367 60.6172C87.868 60.8984 88.4813 61.0391 89.1766 61.0391C89.8641 61.0391 90.4695 60.8984 90.993 60.6172C91.5164 60.3281 91.9617 59.9414 92.3289 59.457C92.6805 58.9727 92.9461 58.4219 93.1258 57.8047C93.3133 57.1797 93.4109 56.5312 93.4188 55.8594V55.4727C93.4109 54.8086 93.3133 54.1641 93.1258 53.5391C92.9383 52.9141 92.6688 52.3633 92.3172 51.8867C91.95 51.4023 91.5008 51.0156 90.9695 50.7266C90.4461 50.4375 89.8406 50.293 89.1531 50.293C88.4578 50.293 87.8484 50.4375 87.325 50.7266C86.8016 51.0156 86.3602 51.4023 86.0008 51.8867C85.6414 52.3633 85.368 52.9141 85.1805 53.5391C84.993 54.1641 84.8992 54.8086 84.8992 55.4727V55.8594ZM100.554 62V49.3203H101.843L101.925 51.7812C102.12 51.4141 102.35 51.0742 102.616 50.7617C102.882 50.4492 103.179 50.1797 103.507 49.9531C103.89 49.6875 104.311 49.4766 104.772 49.3203C105.241 49.1641 105.737 49.0859 106.261 49.0859C106.956 49.0859 107.569 49.1914 108.1 49.4023C108.64 49.6133 109.089 49.9219 109.448 50.3281C109.815 50.7422 110.093 51.2461 110.28 51.8398C110.468 52.4336 110.561 53.1094 110.561 53.8672V62H109.167V53.8906C109.159 53.3125 109.089 52.8008 108.956 52.3555C108.831 51.9102 108.636 51.5352 108.37 51.2305C108.097 50.9258 107.757 50.6953 107.35 50.5391C106.952 50.3828 106.475 50.3086 105.921 50.3164C105.436 50.3164 104.979 50.4023 104.55 50.5742C104.12 50.7383 103.729 50.9609 103.378 51.2422C103.05 51.5078 102.765 51.8242 102.522 52.1914C102.28 52.5508 102.093 52.9336 101.96 53.3398V62H100.554ZM134.944 60.7695H143.628V62H133.538V44.9375H134.944V60.7695ZM158.275 62C158.189 61.7188 158.122 61.418 158.075 61.0977C158.036 60.7773 158.009 60.4531 157.993 60.125C157.751 60.4453 157.466 60.7383 157.138 61.0039C156.818 61.2617 156.466 61.4805 156.083 61.6602C155.693 61.8477 155.278 61.9883 154.841 62.082C154.411 62.1836 153.962 62.2344 153.493 62.2344C152.907 62.2344 152.357 62.1484 151.841 61.9766C151.325 61.8047 150.88 61.5625 150.505 61.25C150.13 60.9375 149.833 60.5625 149.614 60.125C149.396 59.6797 149.286 59.1836 149.286 58.6367C149.286 57.9102 149.446 57.293 149.767 56.7852C150.095 56.2773 150.532 55.8594 151.079 55.5312C151.618 55.2188 152.247 54.9922 152.966 54.8516C153.685 54.7031 154.439 54.625 155.228 54.6172H157.982V53.1875C157.974 52.7109 157.88 52.293 157.7 51.9336C157.521 51.5664 157.275 51.2617 156.962 51.0195C156.65 50.7773 156.278 50.5938 155.849 50.4688C155.427 50.3359 154.97 50.2695 154.478 50.2695C154.025 50.2695 153.591 50.3281 153.177 50.4453C152.763 50.5625 152.396 50.7305 152.075 50.9492C151.763 51.168 151.505 51.4375 151.302 51.7578C151.107 52.0703 151.005 52.4258 150.997 52.8242L149.591 52.8125C149.614 52.2734 149.759 51.7773 150.025 51.3242C150.29 50.8711 150.646 50.4766 151.091 50.1406C151.536 49.8125 152.052 49.5547 152.638 49.3672C153.232 49.1797 153.864 49.0859 154.536 49.0859C155.208 49.0859 155.837 49.1719 156.423 49.3438C157.009 49.5156 157.521 49.7695 157.958 50.1055C158.388 50.457 158.728 50.8906 158.978 51.4062C159.235 51.9219 159.368 52.5234 159.376 53.2109V59.3398C159.376 59.7695 159.411 60.1992 159.482 60.6289C159.56 61.0586 159.653 61.4688 159.763 61.8594L159.775 62H158.275ZM153.646 60.9805C154.138 60.9883 154.607 60.9336 155.052 60.8164C155.497 60.6914 155.907 60.5195 156.282 60.3008C156.657 60.082 156.989 59.8203 157.278 59.5156C157.568 59.2109 157.802 58.8711 157.982 58.4961V55.707H155.427C154.732 55.7148 154.071 55.7734 153.446 55.8828C152.821 55.9922 152.286 56.1875 151.841 56.4688C151.482 56.6953 151.196 56.9766 150.985 57.3125C150.782 57.6406 150.681 58.0391 150.681 58.5078C150.681 58.8906 150.759 59.2344 150.915 59.5391C151.071 59.8438 151.282 60.1016 151.548 60.3125C151.814 60.5312 152.126 60.6992 152.485 60.8164C152.853 60.9258 153.239 60.9805 153.646 60.9805ZM167.214 60.8047H176.495V62H165.363L165.374 60.9453L173.999 50.5391H165.632V49.3203H175.886L175.874 50.3633L167.214 60.8047ZM183.548 60.8047H192.829V62H181.697L181.708 60.9453L190.333 50.5391H181.966V49.3203H192.22L192.208 50.3633L183.548 60.8047ZM207.277 62C207.191 61.7188 207.124 61.418 207.077 61.0977C207.038 60.7773 207.011 60.4531 206.995 60.125C206.753 60.4453 206.468 60.7383 206.14 61.0039C205.82 61.2617 205.468 61.4805 205.085 61.6602C204.695 61.8477 204.281 61.9883 203.843 62.082C203.413 62.1836 202.964 62.2344 202.495 62.2344C201.91 62.2344 201.359 62.1484 200.843 61.9766C200.327 61.8047 199.882 61.5625 199.507 61.25C199.132 60.9375 198.835 60.5625 198.617 60.125C198.398 59.6797 198.288 59.1836 198.288 58.6367C198.288 57.9102 198.449 57.293 198.769 56.7852C199.097 56.2773 199.535 55.8594 200.081 55.5312C200.62 55.2188 201.249 54.9922 201.968 54.8516C202.687 54.7031 203.441 54.625 204.23 54.6172H206.984V53.1875C206.976 52.7109 206.882 52.293 206.702 51.9336C206.523 51.5664 206.277 51.2617 205.964 51.0195C205.652 50.7773 205.281 50.5938 204.851 50.4688C204.429 50.3359 203.972 50.2695 203.48 50.2695C203.027 50.2695 202.593 50.3281 202.179 50.4453C201.765 50.5625 201.398 50.7305 201.077 50.9492C200.765 51.168 200.507 51.4375 200.304 51.7578C200.109 52.0703 200.007 52.4258 199.999 52.8242L198.593 52.8125C198.617 52.2734 198.761 51.7773 199.027 51.3242C199.292 50.8711 199.648 50.4766 200.093 50.1406C200.538 49.8125 201.054 49.5547 201.64 49.3672C202.234 49.1797 202.867 49.0859 203.538 49.0859C204.21 49.0859 204.839 49.1719 205.425 49.3438C206.011 49.5156 206.523 49.7695 206.96 50.1055C207.39 50.457 207.73 50.8906 207.98 51.4062C208.238 51.9219 208.37 52.5234 208.378 53.2109V59.3398C208.378 59.7695 208.413 60.1992 208.484 60.6289C208.562 61.0586 208.656 61.4688 208.765 61.8594L208.777 62H207.277ZM202.648 60.9805C203.14 60.9883 203.609 60.9336 204.054 60.8164C204.499 60.6914 204.91 60.5195 205.285 60.3008C205.66 60.082 205.992 59.8203 206.281 59.5156C206.57 59.2109 206.804 58.8711 206.984 58.4961V55.707H204.429C203.734 55.7148 203.074 55.7734 202.449 55.8828C201.824 55.9922 201.288 56.1875 200.843 56.4688C200.484 56.6953 200.199 56.9766 199.988 57.3125C199.785 57.6406 199.683 58.0391 199.683 58.5078C199.683 58.8906 199.761 59.2344 199.917 59.5391C200.074 59.8438 200.285 60.1016 200.55 60.3125C200.816 60.5312 201.128 60.6992 201.488 60.8164C201.855 60.9258 202.242 60.9805 202.648 60.9805ZM223.283 49.0859C223.626 49.0859 223.974 49.1094 224.326 49.1562C224.685 49.1953 224.986 49.2539 225.228 49.332L225.04 50.6914C224.72 50.6211 224.396 50.5664 224.068 50.5273C223.74 50.4883 223.404 50.4688 223.06 50.4688C222.466 50.4688 221.908 50.5391 221.384 50.6797C220.869 50.8125 220.404 51.0234 219.99 51.3125C219.591 51.5938 219.244 51.9492 218.947 52.3789C218.658 52.8008 218.435 53.3047 218.279 53.8906L218.29 62H216.849V49.3203H218.185L218.267 51.2773V51.8398C218.759 50.9727 219.431 50.2969 220.283 49.8125C221.134 49.3203 222.134 49.0781 223.283 49.0859ZM231.554 49.3203H237.437V60.7461H241.75V62H231.554V60.7461H236.043V50.5742H231.554V49.3203ZM235.632 45.8516C235.632 45.7031 235.652 45.5625 235.691 45.4297C235.73 45.2969 235.796 45.1797 235.89 45.0781C235.976 44.9844 236.085 44.9141 236.218 44.8672C236.351 44.8125 236.507 44.7852 236.687 44.7852C236.867 44.7852 237.023 44.8125 237.156 44.8672C237.289 44.9141 237.394 44.9844 237.472 45.0781C237.566 45.1719 237.636 45.2852 237.683 45.418C237.73 45.5508 237.753 45.6953 237.753 45.8516C237.753 46.1328 237.668 46.375 237.496 46.5781C237.324 46.7812 237.054 46.8828 236.687 46.8828C236.312 46.8828 236.043 46.7812 235.878 46.5781C235.714 46.375 235.632 46.1328 235.632 45.8516ZM256.408 58.7656C256.408 58.3984 256.322 58.0781 256.15 57.8047C255.978 57.5234 255.74 57.2852 255.435 57.0898C255.099 56.8711 254.689 56.6836 254.205 56.5273C253.728 56.3711 253.236 56.2383 252.728 56.1289C252.08 55.9961 251.486 55.8438 250.947 55.6719C250.408 55.5 249.904 55.2773 249.435 55.0039C248.998 54.7461 248.642 54.418 248.369 54.0195C248.103 53.6133 247.97 53.1211 247.97 52.543C247.97 51.9961 248.103 51.5078 248.369 51.0781C248.642 50.6484 249.005 50.2812 249.459 49.9766C249.888 49.6953 250.388 49.4766 250.959 49.3203C251.537 49.1641 252.13 49.0859 252.74 49.0859C253.42 49.0859 254.056 49.1719 254.65 49.3438C255.252 49.5078 255.779 49.75 256.232 50.0703C256.677 50.3984 257.033 50.7969 257.298 51.2656C257.564 51.7344 257.709 52.2695 257.732 52.8711H256.326C256.318 52.4648 256.209 52.1016 255.998 51.7812C255.795 51.4609 255.529 51.1914 255.201 50.9727C254.865 50.7539 254.482 50.5859 254.052 50.4688C253.63 50.3516 253.193 50.293 252.74 50.293C252.31 50.293 251.892 50.3398 251.486 50.4336C251.088 50.5195 250.732 50.6562 250.42 50.8438C250.099 51.0234 249.841 51.2539 249.646 51.5352C249.459 51.8086 249.365 52.1289 249.365 52.4961C249.365 52.8633 249.447 53.1836 249.611 53.457C249.783 53.7227 250.033 53.9492 250.361 54.1367C250.689 54.332 251.084 54.4961 251.545 54.6289C252.005 54.7539 252.486 54.8672 252.986 54.9688C253.627 55.1016 254.236 55.2656 254.814 55.4609C255.4 55.6484 255.916 55.8828 256.361 56.1641C256.806 56.4531 257.158 56.8047 257.416 57.2188C257.673 57.625 257.802 58.1172 257.802 58.6953C257.802 59.2422 257.677 59.7305 257.427 60.1602C257.177 60.5898 256.853 60.9453 256.455 61.2266C255.97 61.5703 255.408 61.8242 254.767 61.9883C254.127 62.1523 253.478 62.2344 252.822 62.2344C252.103 62.2344 251.423 62.1445 250.783 61.9648C250.142 61.7852 249.588 61.5312 249.119 61.2031C248.634 60.8828 248.252 60.4883 247.97 60.0195C247.697 59.5508 247.548 59.0234 247.525 58.4375H248.92C248.966 58.9375 249.115 59.3555 249.365 59.6914C249.623 60.0273 249.939 60.293 250.314 60.4883C250.673 60.6914 251.072 60.8359 251.509 60.9219C251.955 61 252.392 61.0391 252.822 61.0391C253.377 61.0391 253.9 60.9727 254.392 60.8398C254.884 60.6992 255.31 60.4922 255.67 60.2188C255.904 60.0312 256.084 59.8203 256.209 59.5859C256.341 59.3438 256.408 59.0703 256.408 58.7656Z" fill="black"/>
<rect x="38" y="19" width="10" height="10" fill="black"/>
<rect x="48" y="29" width="10" height="10" fill="black"/>
<rect x="58" y="19" width="10" height="10" fill="black"/>
<rect x="68" y="29" width="10" height="10" fill="black"/>
<rect x="28" y="29" width="10" height="10" fill="black"/>
<rect x="192" y="19" width="10" height="10" fill="black"/>
<rect x="202" y="29" width="10" height="10" fill="black"/>
<rect x="212" y="19" width="10" height="10" fill="black"/>
<rect x="222" y="29" width="10" height="10" fill="black"/>
<rect x="182" y="29" width="10" height="10" fill="black"/>
</svg>
